<svg width="208" height="41" viewBox="0 0 208 41" fill="none" xmlns="http://www.w3.org/2000/svg">
<g clip-path="url(#clip0_38_1148)">
<path fill-rule="evenodd" clip-rule="evenodd" d="M15.9489 5.09375C18.8335 5.12667 21.4394 5.83561 23.7667 7.22058C26.0663 8.5779 27.9791 10.5025 29.3224 12.8102C30.6989 15.1516 31.4036 17.7733 31.4364 20.6754C31.3547 24.6463 30.1022 28.0377 27.6791 30.8499C25.256 33.662 22.1526 35.4017 18.9399 36.0687V24.9357H21.9772L22.6641 20.5607H18.0649V17.6952C18.0394 17.1011 18.2272 16.5176 18.5945 16.05C18.9623 15.5811 19.61 15.3347 20.5376 15.3107H23.3149V11.4783C23.2751 11.4655 22.8969 11.4148 22.1805 11.3262C21.3681 11.2311 20.551 11.1804 19.733 11.1741C17.8817 11.1826 16.4175 11.7049 15.3405 12.7408C14.2634 13.7764 13.7133 15.2748 13.6899 17.2359V20.5607H10.1899V24.9357H13.6899V36.0687C9.74526 35.4017 6.64181 33.662 4.21869 30.8499C1.79556 28.0377 0.543188 24.6462 0.461426 20.6754C0.494138 17.7731 1.1988 15.1514 2.5754 12.8102C3.9187 10.5025 5.83158 8.57791 8.13113 7.22058C10.4584 5.83588 13.0643 5.12693 15.9489 5.09375V5.09375Z" fill="white"/>
</g>
<path d="M92.0002 21.0889C92.2402 11.9289 84.8802 4.48885 75.7602 4.60885C67.0002 4.72885 59.9202 11.9689 60.0002 20.7289C60.0402 27.0089 63.7202 32.4089 69.0002 35.0089C69.3202 35.1689 69.6802 34.9289 69.6402 34.5689C69.6002 33.5289 69.6402 32.4489 69.8402 31.5689C70.0402 30.6889 70.8402 27.3289 71.3602 25.1289C71.6002 24.0489 71.6402 22.9289 71.4402 21.8489C71.3602 21.4889 71.3202 21.0889 71.3202 20.6089C71.3202 18.2489 72.6802 16.4889 74.4002 16.4889C75.8402 16.4889 76.5602 17.5689 76.5602 18.8889C76.5602 20.3289 75.6402 22.5289 75.1602 24.5689C74.7602 26.2489 76.0002 27.6489 77.6802 27.6489C80.7202 27.6489 83.0402 24.4489 83.0402 19.8489C83.0402 15.7689 80.1202 12.9289 75.9202 12.9289C71.0802 12.9289 68.2402 16.5689 68.2402 20.3289C68.2402 21.8089 68.8002 23.3689 69.5202 24.2089C69.6402 24.3689 69.6802 24.5289 69.6402 24.6889C69.5202 25.2089 69.2402 26.3689 69.1602 26.6089C69.0802 26.9289 68.9202 26.9689 68.6002 26.8489C66.4802 25.8089 65.1202 22.6889 65.1202 20.2089C65.1202 14.8489 69.0002 9.92885 76.3602 9.92885C82.2402 9.92885 86.8402 14.1289 86.8402 19.7689C86.8402 25.6489 83.1602 30.3289 78.0002 30.3289C76.6402 30.3289 75.3602 29.7689 74.6002 29.0089C74.3602 28.7689 73.9602 28.8889 73.8802 29.2089C73.6002 30.2089 73.2002 31.8889 73.0402 32.4089C72.8002 33.3689 72.2802 34.4889 71.7202 35.4889C71.5602 35.7289 71.7202 36.0889 72.0002 36.1289C73.3202 36.4489 74.6802 36.6489 76.0802 36.6089C84.5602 36.5289 91.7602 29.4889 92.0002 21.0889V21.0889Z" fill="white"/>
<g clip-path="url(#clip1_38_1148)">
<path d="M136.315 36.6083C136.209 36.6083 136.103 36.6083 135.996 36.6078C133.488 36.6139 131.17 36.5502 128.917 36.413C126.85 36.2873 124.964 35.5731 123.461 34.3481C122.012 33.1659 121.022 31.5675 120.519 29.5978C120.082 27.883 120.058 26.1996 120.036 24.5714C120.02 23.4032 120.003 22.019 120 20.6112C120.003 19.1977 120.02 17.8134 120.036 16.6452C120.058 15.0172 120.082 13.3339 120.519 11.6188C121.022 9.64908 122.012 8.05069 123.461 6.86856C124.964 5.64346 126.85 4.92935 128.917 4.80362C131.171 4.66666 133.489 4.60269 136.002 4.6088C138.511 4.60343 140.828 4.66666 143.082 4.80362C145.149 4.92935 147.035 5.64346 148.537 6.86856C149.987 8.05069 150.977 9.64908 151.48 11.6188C151.917 13.3336 151.94 15.0172 151.963 16.6452C151.979 17.8134 151.996 19.1977 151.999 20.6054V20.6112C151.996 22.019 151.979 23.4032 151.963 24.5714C151.94 26.1994 151.917 27.8827 151.48 29.5978C150.977 31.5675 149.987 33.1659 148.537 34.3481C147.035 35.5731 145.149 36.2873 143.082 36.413C140.924 36.5443 138.707 36.6083 136.315 36.6083V36.6083ZM135.996 34.1078C138.464 34.1137 140.729 34.0514 142.93 33.9176C144.493 33.8227 145.848 33.3156 146.958 32.4106C147.983 31.5739 148.69 30.4196 149.057 28.9796C149.422 27.5522 149.443 26.0194 149.463 24.5373C149.479 23.3769 149.495 22.0023 149.499 20.6083C149.495 19.214 149.479 17.8398 149.463 16.6794C149.443 15.1972 149.422 13.6645 149.057 12.2367C148.69 10.7968 147.983 9.64249 146.958 8.80582C145.848 7.90103 144.493 7.39395 142.93 7.29898C140.729 7.16495 138.464 7.10318 136.002 7.10855C133.535 7.10269 131.269 7.16495 129.068 7.29898C127.506 7.39395 126.151 7.90103 125.041 8.80582C124.015 9.64249 123.309 10.7968 122.941 12.2367C122.577 13.6645 122.556 15.1969 122.536 16.6794C122.52 17.8407 122.503 19.216 122.5 20.6112C122.503 22.0004 122.52 23.3759 122.536 24.5373C122.556 26.0194 122.577 27.5522 122.941 28.9796C123.309 30.4196 124.015 31.5739 125.041 32.4106C126.151 33.3153 127.506 33.8224 129.068 33.9174C131.269 34.0514 133.536 34.1139 135.996 34.1078V34.1078ZM135.937 28.4208C131.629 28.4208 128.124 24.9162 128.124 20.6083C128.124 16.3004 131.629 12.7958 135.937 12.7958C140.245 12.7958 143.749 16.3004 143.749 20.6083C143.749 24.9162 140.245 28.4208 135.937 28.4208V28.4208ZM135.937 15.2958C133.008 15.2958 130.624 17.6791 130.624 20.6083C130.624 23.5375 133.008 25.9208 135.937 25.9208C138.866 25.9208 141.249 23.5375 141.249 20.6083C141.249 17.6791 138.866 15.2958 135.937 15.2958V15.2958ZM144.624 10.2958C143.589 10.2958 142.749 11.1352 142.749 12.1708C142.749 13.2065 143.589 14.0458 144.624 14.0458C145.66 14.0458 146.499 13.2065 146.499 12.1708C146.499 11.1352 145.66 10.2958 144.624 10.2958Z" fill="white"/>
</g>
<path d="M204.768 12.672C203.808 13.088 202.816 13.376 201.76 13.504C202.848 12.864 203.68 11.84 204.064 10.592C203.04 11.2 201.92 11.616 200.736 11.872C199.776 10.848 198.4 10.208 196.896 10.208C193.984 10.208 191.648 12.576 191.648 15.456C191.648 15.872 191.68 16.256 191.776 16.64C187.424 16.448 183.584 14.336 180.992 11.168C179.136 14.496 181.216 17.248 182.592 18.176C181.76 18.176 180.928 17.92 180.224 17.536C180.224 20.128 182.048 22.272 184.416 22.752C183.904 22.912 182.752 23.008 182.048 22.848C182.72 24.928 184.672 26.464 186.944 26.496C185.152 27.904 182.528 29.024 179.168 28.672C181.504 30.176 184.256 31.04 187.232 31.04C196.896 31.04 202.144 23.04 202.144 16.128C202.144 15.904 202.144 15.68 202.112 15.456C203.2 14.656 204.096 13.728 204.768 12.672V12.672Z" fill="white"/>
<defs>
<clipPath id="clip0_38_1148">
<rect width="32" height="32" fill="white" transform="translate(0 4.6084)"/>
</clipPath>
<clipPath id="clip1_38_1148">
<rect width="32" height="32" fill="white" transform="translate(120 4.6084)"/>
</clipPath>
</defs>
</svg>
